<svg xmlns="http://www.w3.org/2000/svg" xmlns:xlink="http://www.w3.org/1999/xlink" width="500" zoomAndPan="magnify" viewBox="0 0 375 374.999991" height="500" preserveAspectRatio="xMidYMid meet" version="1.0"><defs><clipPath id="58bd024356"><path d="M 3.046875 184 L 217 184 L 217 374 L 3.046875 374 Z M 3.046875 184 " clip-rule="nonzero"/></clipPath><clipPath id="741f7c0901"><path d="M 3.046875 1 L 370 1 L 370 374 L 3.046875 374 Z M 3.046875 1 " clip-rule="nonzero"/></clipPath></defs><path fill="#fab990" d="M 64.140625 276.0625 C 63.207031 276.0625 62.277344 275.847656 61.394531 275.417969 L 49.175781 269.308594 L 54.664062 258.382812 L 60.558594 261.339844 L 70.558594 231.375 C 71.394531 228.894531 73.734375 227.199219 76.359375 227.199219 L 106.90625 227.199219 L 106.90625 239.414062 L 80.75 239.414062 L 69.9375 271.886719 C 69.367188 273.558594 68.125 274.917969 66.476562 275.585938 C 65.738281 275.894531 64.925781 276.0625 64.140625 276.0625 " fill-opacity="1" fill-rule="nonzero"/><path fill="#24376d" d="M 143.558594 215.414062 L 143.558594 227.199219 C 143.558594 237.339844 135.375 245.523438 125.230469 245.523438 L 94.6875 245.523438 L 94.6875 215.414062 L 143.558594 215.414062 " fill-opacity="1" fill-rule="nonzero"/><path fill="#e4a034" d="M 119.121094 166.550781 L 125.230469 166.550781 C 135.375 166.550781 143.558594 174.734375 143.558594 184.875 L 143.558594 214.984375 L 94.6875 214.984375 L 94.6875 184.875 C 94.6875 174.734375 102.871094 166.550781 113.015625 166.550781 L 119.121094 166.550781 " fill-opacity="1" fill-rule="nonzero"/><path fill="#fab990" d="M 240.089844 269.953125 L 265.078125 269.953125 C 259.207031 294.503906 257.128906 319.914062 258.96875 345.441406 L 259.636719 354.601562 C 259.828125 357.96875 258.65625 361.332031 256.34375 363.765625 C 254.074219 366.269531 250.832031 367.675781 247.417969 367.675781 L 216.871094 367.675781 L 216.871094 360.710938 C 216.871094 351.074219 224.699219 343.246094 234.339844 343.246094 C 234.03125 337.996094 233.910156 332.75 233.910156 327.546875 C 233.910156 308.128906 235.988281 288.824219 240.089844 269.953125 " fill-opacity="1" fill-rule="nonzero"/><path fill="#fab990" d="M 361.894531 337.257812 C 365.09375 342.890625 363.375 349.902344 358.054688 353.386719 L 339.726562 365.601562 C 337.71875 366.9375 335.332031 367.675781 332.949219 367.675781 L 320.730469 367.675781 L 320.730469 356.367188 C 320.730469 348.613281 325.859375 341.792969 333.378906 339.644531 L 335.644531 338.976562 C 325.3125 316.742188 317.363281 293.644531 311.804688 269.953125 L 333.972656 269.953125 C 339.558594 293.527344 349.9375 315.832031 361.894531 337.257812 " fill-opacity="1" fill-rule="nonzero"/><path fill="#fab990" d="M 259.636719 170.773438 C 269.707031 161.972656 277.464844 150.351562 281.757812 137.230469 C 283.570312 131.671875 288.964844 128.140625 294.691406 129.167969 L 296.410156 129.476562 C 303.1875 130.765625 307.292969 137.660156 305.144531 144.246094 C 298.367188 165.621094 284.621094 183.777344 266.773438 196.304688 C 252.429688 206.324219 235.320312 212.671875 216.941406 214.054688 C 216.632812 214.054688 216.324219 214.125 216.011719 214.125 C 210.140625 214.125 205.203125 209.546875 204.722656 203.628906 L 204.582031 201.910156 C 204.222656 196.851562 207.207031 192.320312 211.667969 190.554688 C 212.71875 190.054688 213.886719 189.8125 215.035156 189.695312 C 230.546875 188.476562 244.910156 182.609375 256.511719 173.449219 C 257.558594 172.589844 258.609375 171.730469 259.636719 170.773438 " fill-opacity="1" fill-rule="nonzero"/><path fill="#39973b" d="M 333.972656 269.953125 L 240.089844 269.953125 C 245.101562 246.738281 253.097656 224.144531 264.148438 202.769531 L 326.839844 202.769531 L 330.132812 245.09375 C 330.753906 253.515625 332.089844 261.820312 333.972656 269.953125 " fill-opacity="1" fill-rule="nonzero"/><path fill="#9a4a1e" d="M 123.464844 111.894531 L 115.78125 111.75 L 82.347656 111.152344 C 81.011719 111.128906 79.699219 110.652344 78.648438 109.816406 L 63.421875 97.601562 L 71.085938 88.058594 L 84.664062 98.984375 L 123.394531 99.675781 L 123.464844 111.894531 " fill-opacity="1" fill-rule="nonzero"/><path fill="#fab990" d="M 88.578125 209.304688 C 88.171875 209.304688 87.765625 209.257812 87.382812 209.1875 L 56.835938 203.078125 L 59.222656 191.101562 L 87.453125 196.757812 L 115.972656 179.652344 L 122.273438 190.101562 L 91.726562 208.421875 C 90.773438 209.019531 89.675781 209.304688 88.578125 209.304688 " fill-opacity="1" fill-rule="nonzero"/><path fill="#fab990" d="M 145.0625 110.128906 C 139.40625 104.472656 132.25 100.894531 124.324219 99.75 L 124.183594 99.75 C 121.390625 99.320312 118.40625 99.273438 115.28125 99.582031 C 107 100.394531 99.148438 104.164062 93.183594 110.128906 C 78.910156 124.371094 78.910156 147.632812 93.207031 161.972656 C 100.175781 168.867188 109.363281 172.660156 119.121094 172.660156 C 128.882812 172.660156 138.070312 168.867188 145.085938 161.949219 C 159.335938 147.632812 159.335938 124.371094 145.0625 110.128906 " fill-opacity="1" fill-rule="nonzero"/><g clip-path="url(#58bd024356)"><path fill="#24376d" d="M 132.75 300.492188 L 32.496094 300.492188 L 16.601562 221.09375 L 94.6875 221.09375 L 94.6875 221.523438 L 143.558594 221.523438 L 143.558594 221.09375 L 153.941406 221.09375 Z M 192.433594 184.445312 C 191.050781 184.445312 189.691406 184.921875 188.617188 185.78125 L 159.738281 208.878906 L 143.558594 208.878906 L 143.558594 209.304688 L 94.6875 209.304688 L 94.6875 208.878906 L 9.15625 208.878906 C 7.320312 208.878906 5.601562 209.710938 4.429688 211.121094 C 3.261719 212.527344 2.808594 214.386719 3.167969 216.175781 L 21.492188 307.792969 C 22.066406 310.65625 24.574219 312.707031 27.484375 312.707031 L 129.359375 312.707031 L 120.625 343.246094 L 27.484375 343.246094 L 27.484375 355.460938 L 29.203125 355.460938 C 28.128906 357.277344 27.484375 359.351562 27.484375 361.570312 C 27.484375 368.296875 32.972656 373.785156 39.703125 373.785156 C 46.433594 373.785156 51.921875 368.296875 51.921875 361.570312 C 51.921875 359.351562 51.277344 357.277344 50.203125 355.460938 L 108.621094 355.460938 C 107.550781 357.277344 106.90625 359.351562 106.90625 361.570312 C 106.90625 368.296875 112.394531 373.785156 119.121094 373.785156 C 125.851562 373.785156 131.339844 368.296875 131.339844 361.570312 C 131.339844 358.828125 130.386719 356.296875 128.835938 354.269531 C 129.910156 353.480469 130.722656 352.359375 131.101562 351.023438 L 143.320312 308.269531 C 143.320312 308.246094 143.34375 308.222656 143.34375 308.175781 L 167.28125 218.492188 L 194.582031 196.660156 L 216.871094 196.660156 L 216.871094 184.445312 L 192.433594 184.445312 " fill-opacity="1" fill-rule="nonzero"/></g><path fill="#ca3028" d="M 288.847656 111.152344 C 291.328125 100.035156 317.007812 107.003906 318.105469 111.703125 C 323.164062 113.179688 326.839844 117.859375 326.839844 123.367188 L 326.839844 202.769531 L 264.148438 202.769531 C 265.125 200.8125 266.175781 198.855469 267.203125 196.898438 L 266.773438 196.304688 C 284.621094 183.777344 298.367188 165.621094 305.144531 144.246094 C 307.292969 137.660156 303.1875 130.765625 296.410156 129.476562 L 294.691406 129.167969 C 288.964844 128.140625 283.570312 131.671875 281.757812 137.230469 C 277.464844 150.351562 269.707031 161.972656 259.636719 170.773438 L 259.636719 123.367188 C 259.636719 116.664062 265.125 111.152344 271.855469 111.152344 L 288.847656 111.152344 " fill-opacity="1" fill-rule="nonzero"/><path fill="#86401b" d="M 337.339844 28.699219 C 337.339844 37.265625 332.328125 44.636719 325 48.046875 C 312.902344 48.046875 294.765625 25.644531 294.765625 25.644531 C 296.292969 15.316406 305.21875 7.324219 315.957031 7.324219 C 327.746094 7.324219 337.339844 16.914062 337.339844 28.699219 " fill-opacity="1" fill-rule="nonzero"/><path fill="#9a4a1e" d="M 294.765625 25.644531 C 308.867188 25.71875 320.730469 35.402344 324.140625 48.476562 C 324.285156 49.050781 324.402344 49.527344 324.523438 50.078125 L 251.808594 50.078125 C 248.445312 50.078125 245.390625 48.742188 243.195312 46.472656 C 240.949219 44.277344 239.589844 41.226562 239.589844 37.859375 C 239.589844 31.15625 245.101562 25.644531 251.808594 25.644531 L 294.765625 25.644531 " fill-opacity="1" fill-rule="nonzero"/><path fill="#9a4a1e" d="M 325.121094 56.183594 L 325.121094 95.882812 C 325.121094 101.753906 322.757812 107.121094 318.84375 110.960938 C 314.976562 114.875 309.609375 117.261719 303.738281 117.261719 C 291.949219 117.261719 282.355469 107.671875 282.355469 95.882812 L 282.355469 84.21875 C 286.101562 85.792969 290.253906 86.722656 294.574219 86.722656 C 311.445312 86.722656 325.121094 73.050781 325.121094 56.183594 " fill-opacity="1" fill-rule="nonzero"/><path fill="#fab990" d="M 324.523438 50.078125 C 324.953125 52.03125 325.121094 54.109375 325.121094 56.183594 C 325.121094 73.050781 311.445312 86.722656 294.574219 86.722656 C 290.253906 86.722656 286.101562 85.792969 282.355469 84.21875 L 282.355469 84.167969 C 271.617188 79.445312 264.027344 68.710938 264.027344 56.183594 C 264.027344 54.109375 264.21875 52.03125 264.648438 50.078125 L 324.523438 50.078125 " fill-opacity="1" fill-rule="nonzero"/><g clip-path="url(#741f7c0901)"><path fill="#100f0d" d="M 88.578125 221.09375 L 88.578125 227.199219 L 76.359375 227.199219 C 73.734375 227.199219 71.394531 228.894531 70.558594 231.375 L 60.558594 261.339844 L 54.664062 258.382812 L 49.175781 269.308594 L 61.394531 275.417969 C 62.277344 275.847656 63.207031 276.0625 64.140625 276.0625 C 64.925781 276.0625 65.738281 275.894531 66.476562 275.585938 C 68.125 274.917969 69.367188 273.558594 69.9375 271.886719 L 80.75 239.414062 L 88.578125 239.414062 L 88.578125 245.523438 C 88.578125 248.886719 91.320312 251.632812 94.6875 251.632812 L 125.230469 251.632812 C 138.714844 251.632812 149.667969 240.679688 149.667969 227.199219 L 149.667969 221.09375 L 153.941406 221.09375 L 132.75 300.492188 L 32.496094 300.492188 L 16.601562 221.09375 Z M 137.449219 221.523438 L 137.449219 227.199219 C 137.449219 233.929688 131.960938 239.414062 125.230469 239.414062 L 100.796875 239.414062 L 100.796875 221.523438 Z M 100.796875 208.878906 L 100.796875 202.984375 L 122.273438 190.125 L 115.972656 179.652344 L 100.796875 188.765625 L 100.796875 184.875 C 100.796875 178.148438 106.285156 172.660156 113.015625 172.660156 L 125.230469 172.660156 C 131.960938 172.660156 137.449219 178.148438 137.449219 184.875 L 137.449219 208.878906 Z M 94.6875 136.015625 C 94.6875 129.5 97.214844 123.34375 101.84375 118.742188 C 106.117188 114.46875 111.605469 112.226562 117.214844 111.773438 L 121.914062 111.871094 C 127.214844 112.464844 132.34375 114.683594 136.402344 118.742188 C 141.03125 123.34375 143.558594 129.5 143.558594 136.015625 C 143.558594 142.550781 141.03125 148.683594 136.402344 153.289062 C 127.164062 162.519531 111.082031 162.519531 101.84375 153.289062 C 97.214844 148.683594 94.6875 142.550781 94.6875 136.015625 Z M 213.148438 196.660156 L 216.871094 196.660156 L 216.871094 195.660156 C 249.707031 192.582031 277.390625 170.535156 287.582031 139.089844 C 288.464844 136.371094 290.992188 134.75 293.617188 135.203125 L 295.3125 135.488281 C 296.816406 135.773438 298.058594 136.632812 298.84375 137.945312 C 299.65625 139.304688 299.847656 140.882812 299.371094 142.382812 C 287.605469 179.269531 255.054688 205.011719 216.441406 207.996094 C 215.058594 208.113281 213.699219 207.660156 212.625 206.753906 C 211.574219 205.847656 210.929688 204.558594 210.808594 203.175781 L 210.667969 201.433594 C 210.523438 199.453125 211.574219 197.664062 213.148438 196.660156 Z M 265.746094 123.367188 C 265.746094 120.003906 268.488281 117.261719 271.855469 117.261719 L 286.699219 117.261719 C 291.398438 121.03125 297.292969 123.367188 303.761719 123.367188 C 309.273438 123.367188 314.40625 121.699219 318.699219 118.90625 C 319.941406 120.027344 320.730469 121.578125 320.730469 123.367188 L 320.730469 196.660156 L 276.53125 196.660156 C 292.355469 183.851562 304.5 166.480469 310.992188 146.105469 C 312.542969 141.261719 311.921875 135.988281 309.320312 131.648438 C 306.746094 127.351562 302.425781 124.371094 297.484375 123.488281 L 295.789062 123.179688 C 287.082031 121.578125 278.75 126.710938 275.960938 135.320312 C 273.597656 142.621094 270.113281 149.277344 265.746094 155.21875 Z M 319.035156 83.476562 L 319.035156 95.882812 C 319.035156 99.390625 317.816406 102.589844 315.8125 105.164062 C 315.40625 105.140625 315.027344 105.046875 314.621094 105.046875 L 291.636719 105.046875 C 289.679688 102.492188 288.488281 99.34375 288.488281 95.882812 L 288.488281 92.304688 C 288.75 92.351562 289.011719 92.351562 289.277344 92.402344 C 290.160156 92.542969 291.089844 92.640625 291.996094 92.6875 C 292.449219 92.734375 292.878906 92.757812 293.332031 92.757812 C 293.761719 92.78125 294.167969 92.832031 294.597656 92.832031 C 295.195312 92.832031 295.789062 92.757812 296.363281 92.734375 C 296.601562 92.734375 296.839844 92.710938 297.078125 92.710938 C 304.023438 92.234375 310.445312 89.847656 315.789062 86.03125 C 315.910156 85.960938 316.003906 85.863281 316.125 85.792969 C 317.007812 85.148438 317.839844 84.480469 318.652344 83.789062 C 318.773438 83.667969 318.914062 83.574219 319.035156 83.476562 Z M 270.160156 56.183594 L 319.035156 56.183594 C 319.035156 57.878906 318.867188 59.5 318.558594 61.074219 C 318.535156 61.171875 318.507812 61.242188 318.484375 61.3125 C 318.175781 62.746094 317.746094 64.128906 317.195312 65.464844 C 317.007812 65.894531 316.765625 66.277344 316.578125 66.683594 C 316.125 67.613281 315.644531 68.542969 315.097656 69.402344 C 314.785156 69.878906 314.429688 70.308594 314.09375 70.761719 C 313.546875 71.5 312.996094 72.191406 312.375 72.859375 C 311.945312 73.3125 311.46875 73.742188 311.015625 74.171875 C 310.394531 74.722656 309.75 75.246094 309.082031 75.746094 C 308.558594 76.152344 308.007812 76.535156 307.460938 76.871094 C 306.746094 77.324219 306.027344 77.703125 305.289062 78.0625 C 304.691406 78.347656 304.09375 78.632812 303.476562 78.898438 C 302.640625 79.230469 301.734375 79.46875 300.851562 79.707031 C 300.300781 79.851562 299.753906 80.042969 299.179688 80.136719 C 297.699219 80.425781 296.171875 80.613281 294.597656 80.613281 C 291.257812 80.613281 287.988281 79.921875 284.859375 78.5625 C 276.222656 74.769531 270.160156 66.179688 270.160156 56.183594 Z M 264.671875 43.96875 L 251.832031 43.96875 C 248.46875 43.96875 245.722656 41.226562 245.722656 37.859375 C 245.722656 34.496094 248.46875 31.753906 251.832031 31.753906 L 300.707031 31.753906 C 308.675781 31.753906 315.480469 36.859375 317.984375 43.96875 Z M 315.980469 13.429688 C 324.402344 13.429688 331.253906 20.277344 331.253906 28.699219 C 331.253906 31.921875 330.203125 34.925781 328.460938 37.457031 C 324.023438 27.769531 314.691406 20.898438 303.617188 19.824219 C 306.433594 15.933594 310.96875 13.429688 315.980469 13.429688 Z M 329.296875 276.039062 C 334.476562 295.769531 343.304688 316.476562 356.597656 340.242188 C 358.171875 343.054688 357.335938 346.539062 354.664062 348.328125 L 336.335938 360.542969 C 335.332031 361.210938 334.164062 361.570312 332.949219 361.570312 L 326.839844 361.570312 L 326.839844 356.394531 C 326.839844 351.359375 330.226562 346.875 335.046875 345.488281 L 337.339844 344.84375 C 339.058594 344.34375 340.464844 343.128906 341.203125 341.527344 C 341.945312 339.882812 341.945312 338.023438 341.203125 336.398438 C 332.183594 316.980469 325.046875 296.675781 319.703125 276.039062 Z M 247.871094 263.824219 C 252.546875 244.878906 259.300781 226.484375 268.085938 208.878906 L 321.230469 208.878906 L 324.046875 245.570312 C 324.5 251.632812 325.40625 257.691406 326.550781 263.824219 Z M 252.859375 345.847656 L 253.503906 355.03125 C 253.644531 356.703125 253.050781 358.398438 251.878906 359.613281 C 250.734375 360.855469 249.113281 361.570312 247.417969 361.570312 L 222.980469 361.570312 L 222.980469 360.6875 C 222.980469 354.4375 228.0625 349.355469 234.316406 349.355469 C 236.011719 349.355469 237.609375 348.664062 238.753906 347.445312 C 239.925781 346.230469 240.519531 344.582031 240.425781 342.914062 C 239.136719 320.367188 240.855469 297.941406 245.175781 276.039062 L 257.511719 276.039062 C 252.761719 298.941406 251.1875 322.394531 252.859375 345.847656 Z M 27.484375 312.707031 L 129.359375 312.707031 L 120.625 343.246094 L 27.484375 343.246094 L 27.484375 355.460938 L 29.179688 355.460938 C 28.128906 357.25 27.484375 359.328125 27.484375 361.570312 C 27.484375 368.320312 32.949219 373.785156 39.703125 373.785156 C 46.457031 373.785156 51.921875 368.320312 51.921875 361.570312 C 51.921875 359.328125 51.277344 357.25 50.226562 355.460938 L 108.597656 355.460938 C 107.550781 357.25 106.90625 359.328125 106.90625 361.570312 C 106.90625 368.320312 112.371094 373.785156 119.121094 373.785156 C 125.875 373.785156 131.339844 368.320312 131.339844 361.570312 C 131.339844 358.828125 130.386719 356.296875 128.859375 354.246094 C 129.910156 353.480469 130.722656 352.359375 131.101562 351.023438 L 143.320312 308.269531 C 143.320312 308.246094 143.34375 308.222656 143.34375 308.175781 L 167.28125 218.492188 L 194.582031 196.660156 L 199.09375 196.660156 C 198.613281 198.476562 198.351562 200.382812 198.496094 202.363281 L 198.640625 204.105469 C 198.996094 208.757812 201.121094 212.980469 204.675781 216.011719 C 207.875 218.753906 211.835938 220.210938 216.011719 220.210938 C 216.464844 220.210938 216.917969 220.210938 217.371094 220.160156 C 230.117188 219.183594 242.214844 215.964844 253.359375 210.929688 C 235.054688 250.675781 226.320312 294.148438 227.96875 338.023438 C 218.039062 340.789062 210.761719 349.902344 210.761719 360.6875 L 210.761719 367.675781 C 210.761719 371.042969 213.507812 373.785156 216.871094 373.785156 L 247.417969 373.785156 C 252.5 373.785156 257.371094 371.660156 260.828125 367.941406 C 264.289062 364.242188 266.054688 359.207031 265.699219 354.148438 L 265.054688 344.988281 C 263.382812 321.796875 265.101562 298.632812 270.015625 276.039062 L 307.078125 276.039062 C 312.113281 296.316406 318.890625 316.261719 327.363281 335.46875 C 319.679688 339.476562 314.621094 347.515625 314.621094 356.394531 L 314.621094 367.675781 C 314.621094 371.042969 317.363281 373.785156 320.730469 373.785156 L 332.949219 373.785156 C 336.574219 373.785156 340.082031 372.710938 343.113281 370.707031 L 361.441406 358.492188 C 369.363281 353.21875 371.917969 342.578125 367.265625 334.277344 C 347.910156 299.707031 338.339844 272.054688 336.21875 244.617188 L 332.949219 202.054688 L 332.949219 123.367188 C 332.949219 118.144531 330.703125 113.445312 327.171875 110.105469 C 329.726562 105.929688 331.253906 101.109375 331.253906 95.882812 L 331.253906 62.292969 C 331.253906 61.742188 331.085938 61.242188 330.941406 60.742188 C 331.132812 59.238281 331.253906 57.734375 331.253906 56.183594 C 331.253906 54.703125 331.132812 53.203125 330.941406 51.699219 C 338.675781 46.710938 343.472656 38.125 343.472656 28.699219 C 343.472656 13.550781 331.15625 1.214844 315.980469 1.214844 C 304.261719 1.214844 293.976562 8.730469 290.136719 19.539062 L 251.832031 19.539062 C 241.738281 19.539062 233.503906 27.746094 233.503906 37.859375 C 233.503906 47.976562 241.738281 56.183594 251.832031 56.183594 L 257.941406 56.183594 C 257.941406 69.710938 265.339844 81.523438 276.269531 87.867188 L 276.269531 95.882812 C 276.269531 99.105469 276.9375 102.160156 277.964844 105.046875 L 271.855469 105.046875 C 261.738281 105.046875 253.527344 113.253906 253.527344 123.367188 L 253.527344 168.101562 C 242.667969 176.929688 229.210938 182.488281 214.554688 183.636719 C 213.171875 183.730469 211.859375 184.039062 210.59375 184.445312 L 192.433594 184.445312 C 191.050781 184.445312 189.691406 184.921875 188.617188 185.78125 L 159.738281 208.878906 L 149.667969 208.878906 L 149.667969 184.875 C 149.667969 177.144531 145.996094 170.320312 140.363281 165.859375 C 142.007812 164.667969 143.582031 163.378906 145.039062 161.925781 C 151.960938 155.003906 155.777344 145.796875 155.777344 136.015625 C 155.777344 126.230469 151.960938 117.023438 145.039062 110.105469 C 139.027344 104.089844 131.414062 100.75 123.539062 99.820312 L 123.5625 99.675781 L 121.867188 99.652344 C 120.316406 99.535156 118.789062 99.488281 117.261719 99.558594 L 84.664062 98.984375 L 71.109375 88.058594 L 63.449219 97.601562 L 78.625 109.816406 C 79.699219 110.652344 81.011719 111.128906 82.347656 111.152344 L 92.085938 111.320312 C 85.902344 118.097656 82.46875 126.78125 82.46875 136.015625 C 82.46875 145.796875 86.285156 155.003906 93.207031 161.925781 C 94.660156 163.378906 96.238281 164.667969 97.882812 165.859375 C 92.25 170.320312 88.578125 177.144531 88.578125 184.875 L 88.578125 196.089844 L 87.453125 196.757812 L 59.222656 191.101562 L 56.835938 203.078125 L 85.785156 208.878906 L 9.15625 208.878906 C 7.320312 208.878906 5.601562 209.710938 4.429688 211.121094 C 3.261719 212.527344 2.808594 214.386719 3.167969 216.175781 L 21.492188 307.792969 C 22.066406 310.65625 24.574219 312.707031 27.484375 312.707031 " fill-opacity="1" fill-rule="nonzero"/></g></svg>